<?xml version="1.0" encoding="utf-8"?>
<!-- Generator: Adobe Illustrator 22.1.0, SVG Export Plug-In . SVG Version: 6.00 Build 0)  -->
<svg version="1.1" id="图层_1" xmlns="http://www.w3.org/2000/svg" xmlns:xlink="http://www.w3.org/1999/xlink" x="0px" y="0px"
	 viewBox="0 0 566.9 566.9" style="enable-background:new 0 0 566.9 566.9;" xml:space="preserve">
<style type="text/css">
	.st0{fill:#F02A18;}
</style>
<g>
	<path class="st0" d="M562.5,13.1V4.3H434.2c-4.9,0-8.8,3.9-8.8,8.8c0-4.9-3.9-8.8-8.8-8.8H298.1h-4.3h-4.3v549.5H159.7V4.3h-8.7
		v549.5c0,4.9,3.9,8.8,8.8,8.8h129.5c4.9,0,8.8-3.9,8.8-8.8V13.1h123v540.8c0,4.8,3.9,8.7,8.7,8.7h124.1c4.8,0,8.7-3.9,8.7-8.7
		V279.1h-8.7v274.8H429.8V13.1H562.5z"/>
	<polygon class="st0" points="150.3,543.8 13.6,278.6 150.3,22.7 150.3,4.5 13.1,261.2 13.1,4.3 4.4,4.3 4.4,277.3 4.4,279 
		4.4,279.8 4.4,279.9 4.4,562.5 13.1,562.5 13.1,296.5 150.3,562.6 	"/>
</g>
</svg>
